<?xml version="1.0" encoding="utf-8"?>

<!-- Uploaded to: SVG Repo, www.svgrepo.com, Generator: SVG Repo Mixer Tools -->
<svg xmlns="http://www.w3.org/2000/svg" width="800" height="98" viewBox="0 0 800 98" fill="none"><path fill-rule="evenodd" clip-rule="evenodd" d="M551.101 97.5406L608.164 0.461914H799.36V16.4683H655.94L641.775 40.9581H717.486L708.361 56.9644H632.252L617.685 81.4542H693.797L684.273 97.5406H551.101ZM413.845 72.2505H471.227C469.307 75.0516 468.426 77.8528 469.627 79.6135C471.707 82.7347 479.071 81.213 480.993 80.5738C484.833 79.3734 486.915 76.9724 488.754 73.7711L498.359 56.9644H439.856C427.609 56.9644 427.21 49.6815 432.173 40.9581L450.179 10.3859C455.542 1.58236 462.746 0.461914 471.948 0.461914H573.669C583.994 0.461914 583.994 8.86526 579.832 16.4683L574.07 26.7924H516.367C518.128 23.4311 518.205 20.4699 516.847 18.6292C514.606 15.5879 508.684 16.2282 505.563 17.8288C503.082 19.1894 501.001 21.5103 498.759 25.2718L489.556 40.9581H546.139C558.065 40.9581 559.905 49.6826 556.143 56.9644L538.936 85.6959C534.294 93.2989 526.292 97.5406 517.087 97.5406H416.088C406.164 97.5406 402.724 90.978 406.963 83.7751L413.845 72.2505ZM292.997 16.4683C302.2 0.461914 317.487 0.461914 329.331 0.461914H415.767C424.889 0.461914 432.572 8.06494 427.609 16.4683L389.435 81.4542C381.352 94.4194 374.869 97.5406 364.545 97.5406H263.945C254.021 97.5406 249.459 90.2577 254.822 81.4542L292.997 16.4683ZM343.177 25.2718L314.045 73.7711C313.085 75.5318 312.685 77.1314 313.245 78.413C315.086 82.4146 326.37 81.6943 330.292 80.894C335.894 79.6135 337.334 75.6119 338.535 73.7711L367.266 25.2718C369.267 21.8304 369.027 19.5895 367.266 18.229C364.705 16.2282 356.862 16.0681 352.541 17.2686C348.859 18.309 345.818 20.63 343.177 25.2718ZM153.421 0.461914H264.345C273.149 0.461914 280.032 8.4651 274.269 18.0689L262.825 37.5167C257.863 46.3202 249.459 50.4819 243.297 50.4819C249.459 53.9232 249.459 60.0045 246.338 65.3678L234.894 85.2946C231.852 90.6568 227.211 97.5406 213.125 97.5406H0V81.4542H105.642L153.421 0.461914ZM186.714 40.9581H214.966C221.528 40.9581 224.169 37.5167 225.69 34.4755L231.452 25.2718C233.773 21.1101 233.773 16.4683 228.811 16.4683H201.2L186.714 40.9581ZM162.625 81.4542H190.876C197.439 81.4542 200.08 78.0117 201.599 74.9716L207.363 65.7679C209.684 61.5263 209.684 56.9644 204.642 56.9644H177.111L162.625 81.4542ZM791.915 35.916C787.514 35.916 783.751 32.4747 783.751 27.8328C783.751 23.191 787.514 19.8296 791.915 19.8296C796.317 19.8296 799.999 23.191 799.999 27.8328C800 32.4747 796.317 35.916 791.915 35.916ZM785.352 27.8328C785.352 31.6744 788.235 34.5555 791.915 34.5555C795.516 34.5555 798.397 31.6744 798.397 27.8328C798.397 23.9913 795.516 21.1101 791.915 21.1101C788.235 21.1101 785.352 23.9913 785.352 27.8328ZM790.235 28.4731V32.4747H788.795V23.191H792.317C794.558 23.191 795.597 23.9913 795.597 25.832C795.597 27.5127 794.557 28.233 793.196 28.393L795.838 32.4747H794.237L791.836 28.4731H790.235ZM790.235 27.2726H791.916C793.116 27.2726 794.159 27.1926 794.159 25.752C794.159 24.6315 793.116 24.3915 792.157 24.3915H790.235V27.2726Z" fill="black"></path></svg>