<?xml version="1.0" encoding="utf-8"?>

<!-- Uploaded to: SVG Repo, www.svgrepo.com, Generator: SVG Repo Mixer Tools -->
<svg xmlns="http://www.w3.org/2000/svg" width="666" height="98" viewBox="0 0 666 98" fill="none"><path fill-rule="evenodd" clip-rule="evenodd" d="M365.161 45.5305C365.161 45.5305 358.69 41.5296 354.689 39.9815C354.689 39.9815 342.305 34.2416 339.848 31.5107C339.848 31.5107 335.021 26.9619 337.847 21.6786C337.847 21.6786 339.03 18.2214 344.131 18.2214C344.131 18.2214 350.772 18.5866 350.772 24.0443V31.7431H374.57L374.528 20.4044C374.528 20.4044 376.358 1.83588 346.497 1.01827C346.497 1.01827 323.01 -0.525674 316.274 12.1245C316.274 12.1245 313.63 14.9468 313.63 24.7747V31.8759C313.63 31.8759 313.361 40.0687 317.544 45.3479C317.544 45.3479 319.91 48.8092 325.737 52.6275C325.737 52.6275 337.569 58.9983 344.671 62.6464C344.671 62.6464 351.838 66.7387 350.896 73.2505C350.896 73.2505 350.311 79.9367 343.388 79.6628C343.388 79.6628 337.059 79.3805 337.059 72.823V65.1283H311.7V76.3052C311.7 76.3052 310.991 97.6793 343.575 97.6793C343.575 97.6793 374.711 98.3102 376.163 75.7449V66.6432C376.159 66.6432 377.263 52.8143 365.161 45.5305ZM243.324 3.67862L235.355 53.6153H233.492L225.88 4.12686H186.128L184.136 94.5583H207.673L207.955 26.4224H209.806L222.282 94.5458H247.042L259.365 26.4473H261.004L261.573 94.5583H285.234L282.685 3.67862H243.324ZM103.217 4.05632L87.558 94.4545H112.896L122.172 24.3638H124.255L133.527 94.4545H158.861L143.206 4.05632H103.217ZM634.882 44.2854V57.6204H641.381V71.9349C641.381 78.9323 635.401 79.061 635.401 79.061C628.129 79.061 628.403 72.4121 628.403 72.4121V22.8988C628.403 17.798 634.857 17.5241 634.857 17.5241C641.049 17.5241 641.091 23.6085 641.091 23.6085V31.1372H664.947C665.727 16.4409 662.797 12.8841 662.797 12.8841C656.879 -0.405288 634.492 0.321017 634.492 0.321017C600.09 0.321017 603.908 26.7171 603.908 26.7171V74.5911C604.647 99.3478 638.547 96.8327 639.12 96.8119C654.198 95.1435 658.751 90.3499 658.751 90.3499C662.942 87.2371 664.021 82.9249 664.021 82.9249C665.221 80.414 665.52 72.4121 665.52 72.4121V44.2854H634.882ZM555.806 58.9983H554.768L530.56 3.70351H501.594V94.5666H525.168L523.757 39.2801H524.811L549.892 94.5666H577.977V3.69521H554.104L555.806 58.9983ZM444.05 71.9266C444.05 71.9266 444.39 79.3847 437.476 79.3847C437.476 79.3847 430.205 79.7748 430.205 72.1133L430.13 3.75747H404.273V71.5696C404.273 71.5696 401.621 97.2352 437.841 97.2352C437.841 97.2352 469.317 97.6088 469.317 72.7483V3.76161H444.05V71.9266ZM53.9237 45.5305C53.9237 45.5305 47.4617 41.5296 43.4566 39.9857C43.4566 39.9857 31.0803 34.2499 28.6234 31.5149C28.6234 31.5149 23.7965 26.9578 26.627 21.6869C26.627 21.6869 27.8057 18.2296 32.9023 18.2296C32.9023 18.2296 39.547 18.5907 39.547 24.0484V31.7473H63.3533L63.3076 20.4044C63.3076 20.4044 65.1255 1.83588 35.2763 1.02242C35.2763 1.02242 33.0268 0.877144 29.7273 1.04316C29.7273 1.04316 11.6444 2.01433 5.17817 11.9336C5.14082 12.0083 5.08686 12.0623 5.04951 12.1287C5.04951 12.1287 2.4099 14.9468 2.4099 24.7789V31.8801C2.4099 31.8801 2.13598 40.0728 6.32366 45.352C6.32366 45.352 8.68934 48.8134 14.5164 52.6317C14.5164 52.6317 26.3448 59.0025 33.446 62.6506C33.446 62.6506 40.6219 66.7345 39.6715 73.2547C39.6715 73.2547 39.0863 79.9408 32.1677 79.6669C32.1677 79.6669 25.8385 79.3847 25.8385 72.8272V65.1283H0.475846V76.3135C0.475846 76.3135 -0.233857 97.6876 32.3503 97.6876C32.3503 97.6876 63.4778 98.3185 64.9428 75.7532V66.6598C64.9428 66.6515 66.0302 52.8143 53.9237 45.5305Z" fill="black"></path></svg>