<?xml version="1.0" encoding="utf-8"?>

<!-- Uploaded to: SVG Repo, www.svgrepo.com, Generator: SVG Repo Mixer Tools -->
<svg xmlns="http://www.w3.org/2000/svg" width="800" height="160" viewBox="0 0 800 160" fill="none"><path d="M511.827 129.033L481.289 87.5862L450.784 129.033H438.217L474.93 78.9567L441.401 33.4385H453.968L481.289 70.5619L508.61 33.4385H521.169L487.665 78.9483L524.386 129.033H511.827ZM273.864 129.016L237.109 78.9483L270.638 33.4385H258.071L230.742 70.5702L203.438 33.4385H190.904L224.416 78.9483L187.67 129.016H200.254L230.759 87.5862L261.288 129.016H273.864Z" fill="#333333"></path><path d="M343.737 82.5679C341.843 80.954 339.734 79.6117 337.47 78.5799C340.944 76.7339 343.85 73.9764 345.875 70.6036C347.9 67.2308 348.968 63.3701 348.965 59.436C348.965 53.3199 346.711 33.4303 317.89 33.4303H279.075V74.6422H266.147C264.472 76.8289 260.66 82.082 259.21 84.2351H279.075V129.016L317.899 129.024C338.928 129.024 351.989 118.351 351.989 101.117C351.989 93.5935 349.149 87.201 343.737 82.5679ZM289.807 43.4086H317.899C325.498 43.4086 338.232 45.3021 338.232 58.5981C338.232 68.6519 330.818 74.6422 317.899 74.6422H289.807V43.4086ZM317.89 119.055H289.799V84.2603H317.89C328.539 84.2603 341.282 87.201 341.282 100.908C341.282 116.692 326.629 119.055 317.89 119.055ZM402.484 31.2353C375.632 31.2353 356.865 51.77 356.865 81.1771C356.865 110.626 375.632 131.144 402.484 131.144C429.311 131.144 448.028 110.626 448.028 81.1771C448.028 51.77 429.311 31.2353 402.484 31.2353ZM402.484 121.032C382.025 121.032 367.69 104.636 367.69 81.1771C367.69 57.7185 382.025 41.3309 402.484 41.3309C422.91 41.3309 437.161 57.7185 437.161 81.1771C437.161 104.636 422.91 121.032 402.484 121.032ZM23.7771 23.209L23.7017 23.2761C16.1835 30.6782 10.2153 39.5125 6.14584 49.2467C2.07636 58.9809 -0.0128966 69.4284 7.39576e-05 79.9791C-0.0237325 97.4207 5.70044 114.384 16.2871 128.245C16.396 128.379 16.5636 128.455 16.7144 128.379C16.8568 128.296 16.8652 128.12 16.8066 127.969C10.7324 109.185 41.7817 63.6585 57.8258 44.5732C57.876 44.5062 57.943 44.4308 57.943 44.3386C57.943 44.2297 57.8676 44.1459 57.7922 44.0789C30.8064 17.2187 23.6012 23.3598 23.7017 23.2761M135.591 23.209L135.667 23.2761C143.184 30.6783 149.151 39.5128 153.219 49.2471C157.287 58.9815 159.375 69.4289 159.36 79.9791C159.384 97.4207 153.66 114.384 143.073 128.245C142.972 128.379 142.796 128.455 142.646 128.379C142.512 128.296 142.503 128.12 142.554 127.969C148.628 109.185 117.604 63.625 101.568 44.5313C101.509 44.4643 101.451 44.3889 101.451 44.3051C101.451 44.1878 101.518 44.104 101.601 44.037C128.596 17.1768 135.75 23.3598 135.658 23.2761M79.6842 0.294922C95.7618 0.294922 108.991 4.7018 121.189 11.9572C121.34 12.0326 121.382 12.2002 121.323 12.351C121.265 12.4934 121.097 12.527 120.938 12.4851C105.514 9.15058 82.0636 22.4801 79.8518 23.8123C79.8015 23.8458 79.7512 23.8793 79.6842 23.8793C79.6088 23.8793 79.5585 23.8458 79.5083 23.8123C73.6268 20.4359 51.9527 9.07518 38.3048 12.5688C38.154 12.6024 37.9864 12.5772 37.9194 12.4264C37.8908 12.3556 37.8886 12.2769 37.9132 12.2046C37.9378 12.1323 37.9876 12.0713 38.0534 12.0326C50.2519 4.7018 63.6485 0.294922 79.6842 0.294922ZM79.6842 64.2031C79.7764 64.2031 79.8769 64.2785 79.9356 64.3288C103.78 82.459 144.589 127.282 132.131 139.958L132.148 139.941L132.14 139.958H132.131C117.628 152.688 98.9737 159.697 79.6758 159.672C60.3758 159.695 41.7282 152.687 27.2205 139.958C14.7874 127.282 55.5888 82.459 79.4077 64.3288C79.4748 64.2785 79.5837 64.2031 79.6842 64.2031ZM709.885 33.4387V111.883L652.101 33.3801L642.626 33.3633V128.874H653.266V52.1638L709.868 128.932L720.534 128.949V33.4387H709.885ZM587.389 31.2185C560.537 31.2185 541.762 51.7616 541.762 81.1604C541.762 110.609 560.537 131.161 587.389 131.161C614.216 131.161 632.932 110.609 632.932 81.1604C632.932 51.77 614.216 31.2185 587.389 31.2185ZM587.389 121.032C566.93 121.032 552.595 104.636 552.595 81.1604C552.595 57.7101 566.93 41.3141 587.389 41.3141C607.815 41.3141 622.066 57.7101 622.066 81.1604C622.066 104.636 607.815 121.032 587.389 121.032ZM743.18 119.599V84.2603H795.769V74.9103H743.18V42.7133H799.338V33.3717H732.481V128.949H800V119.599H743.18Z" fill="#333333"></path></svg>