<?xml version="1.0" encoding="utf-8"?>

<!-- Uploaded to: SVG Repo, www.svgrepo.com, Generator: SVG Repo Mixer Tools -->
<svg xmlns="http://www.w3.org/2000/svg" width="725" height="120" viewBox="0 0 725 120" fill="none"><path fill-rule="evenodd" clip-rule="evenodd" d="M472.416 10.796C473.811 10.796 476.268 11.1363 476.268 8.92002C476.268 7.17274 474.857 6.94863 473.358 6.94863H470.32V10.796H472.416ZM477.538 16.8471H475.907L472.769 11.8335H470.312V16.8471H468.917V6.01481H473.69C474.736 6.01481 475.545 6.14347 476.371 6.59585C477.069 6.95278 477.529 7.89074 477.529 8.92832C477.529 11.1446 476.014 11.8377 474.271 11.8377L477.538 16.8471ZM481.032 11.3812C481.022 9.15962 480.135 7.03183 478.565 5.46093C476.994 3.89004 474.866 3.00318 472.644 2.99335C467.984 2.99335 464.045 6.72451 464.045 11.3812C464.045 16.1499 467.984 19.9848 472.644 19.9848C477.189 19.9806 481.032 16.1499 481.032 11.3812ZM462.991 11.3812C462.99 10.1178 463.239 8.86669 463.725 7.7005C464.211 6.5343 464.924 5.47618 465.822 4.58747C466.72 3.69876 467.785 2.99717 468.956 2.52333C470.127 2.04949 471.381 1.81284 472.644 1.82712C478.011 1.82712 482.315 6.14347 482.315 11.3812C482.315 16.7351 478.011 21.1469 472.644 21.1469C467.178 21.1469 462.991 16.7351 462.991 11.3812ZM714.783 10.796C716.194 10.796 718.634 11.1363 718.634 8.92002C718.634 7.17274 717.111 6.94863 715.837 6.94863H712.699V10.796H714.783ZM719.8 16.8471H718.277L715.027 11.8335H712.699V16.8471H711.417V6.01481H716.078C717.003 6.01481 717.821 6.14347 718.746 6.59585C719.572 6.95278 719.912 7.89074 719.912 8.92832C719.912 11.1446 718.406 11.8377 716.534 11.8377L719.8 16.8471ZM723.399 11.3812C723.399 6.72451 719.684 2.99335 714.911 2.99335C713.809 2.98952 712.716 3.20385 711.697 3.62402C710.677 4.04418 709.751 4.66188 708.972 5.44152C708.192 6.22117 707.574 7.14737 707.154 8.16676C706.734 9.18615 706.52 10.2786 706.523 11.3812C706.523 16.1499 710.259 19.9848 714.911 19.9848C719.684 19.9806 723.399 16.1499 723.399 11.3812ZM705.353 11.3812C705.353 6.14347 709.429 1.82712 714.911 1.82712C720.261 1.82712 724.565 6.14347 724.565 11.3812C724.565 16.7351 720.261 21.1469 714.911 21.1469C709.429 21.1469 705.353 16.7351 705.353 11.3812ZM139.249 100.198C135.896 100.21 132.575 99.5587 129.475 98.2813C126.376 97.0038 123.56 95.1256 121.189 92.7549C118.819 90.3842 116.941 87.5679 115.664 84.4682C114.387 81.3685 113.737 78.0468 113.749 74.6944C113.748 71.3464 114.407 68.031 115.688 64.9379C116.97 61.8449 118.848 59.0347 121.217 56.6683C123.585 54.3019 126.397 52.4256 129.491 51.1468C132.585 49.868 135.901 49.2117 139.249 49.2155C142.595 49.2139 145.909 49.8718 149.001 51.1516C152.093 52.4315 154.902 54.3082 157.269 56.6745C159.635 59.0407 161.512 61.8501 162.791 64.9421C164.071 68.0341 164.729 71.348 164.728 74.6944C164.741 78.0453 164.092 81.3658 162.817 84.4647C161.541 87.5635 159.665 90.3793 157.297 92.75C154.929 95.1206 152.115 96.9992 149.017 98.2775C145.92 99.5558 142.6 100.209 139.249 100.198ZM43.5464 100.198C29.4644 100.198 18.1755 88.9134 18.1755 74.6944C18.1755 60.6123 29.4644 49.2155 43.5464 49.2155C57.6285 49.2155 69.046 60.6123 69.046 74.6944C69.0575 78.0464 68.4059 81.3677 67.1285 84.4669C65.8512 87.5661 63.9734 90.382 61.6033 92.7525C59.2332 95.1229 56.4176 97.0012 53.3186 98.279C50.2197 99.5569 46.8985 100.209 43.5464 100.198ZM364.379 100.198C350.297 100.198 339.012 88.9134 339.012 74.6944C339.012 60.6123 350.297 49.2155 364.379 49.2155C378.345 49.2155 389.767 60.6123 389.767 74.6944C389.781 78.0378 389.135 81.3511 387.865 84.4441C386.596 87.5372 384.728 90.3492 382.369 92.7188C380.011 95.0884 377.207 96.9688 374.12 98.2523C371.033 99.5358 367.722 100.197 364.379 100.198ZM267.643 100.198C264.288 100.218 260.963 99.5727 257.86 98.2982C254.757 97.0237 251.937 95.1458 249.565 92.7734C247.193 90.4011 245.316 87.5814 244.042 84.478C242.768 81.3746 242.123 78.0491 242.144 74.6944C242.134 71.3441 242.788 68.025 244.066 64.9282C245.345 61.8314 247.223 59.018 249.593 56.65C251.963 54.2819 254.778 52.4059 257.876 51.13C260.973 49.8541 264.293 49.2035 267.643 49.2155C270.991 49.2133 274.306 49.8707 277.399 51.1501C280.493 52.4295 283.304 54.3059 285.672 56.672C288.04 59.0381 289.918 61.8475 291.2 64.9399C292.482 68.0322 293.142 71.3468 293.143 74.6944C293.154 78.0463 292.502 81.3673 291.224 84.4662C289.947 87.5651 288.069 90.3808 285.699 92.7512C283.329 95.1216 280.514 96.9999 277.415 98.2779C274.316 99.556 270.995 100.209 267.643 100.198ZM164.86 109.752C157.45 115.23 148.468 118.167 139.253 118.128C115.26 118.128 95.8239 98.6874 95.8239 74.6944C95.8239 50.83 115.26 31.3982 139.253 31.3982C148.79 31.3982 157.635 34.5358 164.732 39.7735V4.04338H183.599V117.434H164.86V109.752ZM467.764 59.1099C466.709 51.9963 461.003 46.8872 451.934 46.8872C447.161 46.8872 436.802 48.5058 436.802 54.6774C436.802 63.8786 452.519 64.6879 456.354 64.9287C481.509 67.257 488.835 78.3176 488.835 91.3496C488.835 101.012 483.946 108.225 476.969 113.351C471.034 117.654 458.811 119.398 451.353 119.398C434.818 119.398 418.063 110.333 415.847 89.8265H434.362C435.391 99.4967 445.53 103.103 451.237 103.103C461.588 103.103 468.926 98.6874 468.926 93.5617C468.926 85.4146 461.364 83.6632 450.411 82.5053C444.26 81.808 432.482 79.708 427.601 75.6323C422.139 71.3284 417.478 66.4311 417.478 58.0557C417.478 43.0357 429.232 31.1658 452.407 31.0371C471.611 30.9251 486.162 42.3426 486.614 58.9771L467.764 59.1099ZM69.1581 109.752C61.7478 115.234 52.7636 118.172 43.5464 118.128C19.4538 118.128 0.246094 98.6874 0.246094 74.6944C0.246094 50.83 19.4538 31.3982 43.5464 31.3982C53.1005 31.3982 61.9448 34.5358 69.1581 39.7735V31.5144H87.7806V117.434H69.1581V109.752ZM215.951 25.5753V3.92717H197.212V25.5753H215.951ZM215.951 117.43V31.5102H197.212V117.43H215.951ZM389.767 109.752C382.777 115.102 373.937 118.128 364.379 118.128C340.403 118.128 320.967 98.6874 320.967 74.6944C320.967 50.83 340.403 31.3982 364.379 31.3982C373.937 31.3982 382.782 34.5358 389.767 39.7735V31.5144H408.613V117.434H389.995L389.767 109.752ZM293.255 109.752C286.158 115.102 277.201 118.128 267.643 118.128C243.779 118.128 224.231 98.6874 224.231 74.6944C224.231 50.83 243.779 31.3982 267.643 31.3982C277.201 31.3982 286.046 34.5358 293.255 39.7735V4.04338H311.882V117.434H293.255V109.752ZM633.656 64.9287C634.702 44.5547 628.638 22.1969 612.336 0.432617C596.515 20.8066 590.937 43.9737 592.323 64.9287H633.656ZM594.764 81.0983C594.066 78.06 593.485 74.9962 593.02 71.9137H632.951C632.494 74.9976 631.913 78.0616 631.207 81.0983H594.764ZM604.077 104.162C606.641 108.428 609.602 112.443 612.921 116.152C616.188 112.537 619.097 108.457 621.782 104.162H604.077ZM695.936 65.0407C700.589 55.3746 703.855 44.5547 705.357 32.4441C678.243 34.7765 656.94 47.9206 642.608 65.0407H695.936ZM692.325 71.9137C690.462 75.1634 688.474 78.0727 686.39 81.0983L632.013 80.87C633.756 77.9607 635.507 74.6944 637.491 71.9137H692.325ZM670.901 97.1725C674.308 94.3912 677.498 91.354 680.443 88.0875L545.404 87.9754C548.445 91.3406 551.752 94.4552 555.294 97.2887L670.901 97.1725ZM623.758 104.162C622.957 108.03 622.491 111.959 622.363 115.907C635.283 115.33 648.668 111.367 660.779 104.162H623.758ZM533.538 71.9137C535.509 75.1634 537.493 78.0727 539.714 81.0983H593.846C592.323 77.9607 590.468 74.9392 588.472 71.9137H533.538ZM565.192 104.162C577.303 111.367 590.58 115.33 603.496 115.907C603.35 111.967 602.924 108.042 602.222 104.162H565.192ZM583.234 65.0407C569.04 47.9206 547.861 34.7765 520.726 32.4441C522.105 43.7169 525.208 54.7108 529.927 65.0407H583.234Z" fill="black"></path></svg>