<?xml version="1.0" encoding="utf-8"?>

<!-- Uploaded to: SVG Repo, www.svgrepo.com, Generator: SVG Repo Mixer Tools -->
<svg xmlns="http://www.w3.org/2000/svg" width="800" height="112" viewBox="0 0 800 112" fill="none"><path d="M174.333 0.96582H110.18C98.9759 0.96582 89.8921 10.0407 89.8921 21.2346V90.4834C89.8921 101.675 98.9759 110.75 110.18 110.75H174.333C185.538 110.75 194.621 101.675 194.621 90.4834V21.2346C194.621 10.0407 185.537 0.96582 174.333 0.96582ZM163.625 64.7724L178.183 107.701L143.43 80.7235L109.851 107.466L123.236 65.7109L92.2399 42.2523H130.75L142.96 4.01544L155.875 42.2523H192.036L163.625 64.7724ZM423.64 111.03C410.567 111.03 399.968 100.443 399.968 87.3834V26.8439C399.968 13.7843 410.567 3.19698 423.64 3.19698H482.16V32.2065H431.199V42.6077H482.16V71.6195H431.199V82.0207H482.16V111.033L423.64 111.03ZM293.081 26.8439C293.081 13.7843 282.484 3.19698 269.411 3.19698H204.863V111.033H236.097V32.2054H261.85V111.033H293.083L293.081 26.8439ZM23.6704 111.033C10.5986 111.033 0 100.446 0 87.3856V26.8405C0 13.781 10.5986 3.19249 23.6704 3.19249H81.0975V32.2054H31.234V82.0207H81.0986V111.033H23.6704ZM291.731 3.19249H324.062L345.431 68.8827L367.349 3.19249H399.679L363.514 111.033H327.349L291.731 3.19249ZM655.512 111.03C668.585 111.03 679.183 100.443 679.183 87.3834V66.2558C679.183 53.1973 668.585 42.61 655.512 42.61L622.745 42.6077V32.2065H675.351V3.19586H615.186C602.115 3.19586 591.517 13.7832 591.517 26.8428V47.9681C591.517 61.0277 602.115 71.6161 615.186 71.6161H648.502V82.0196H591.512V111.033L655.512 111.03ZM770.705 111.033L712.184 111.03C699.113 111.03 688.515 100.443 688.515 87.3834V26.8439C688.515 13.7843 699.113 3.19698 712.184 3.19698H770.705V32.2065H719.746V42.6077H770.705V71.6195H719.746V82.0207H770.705V111.033ZM565.24 70.0936C574.179 66.7143 580.536 58.0823 580.536 47.9692V26.8439C580.536 13.7843 569.937 3.19698 556.867 3.19698H493.414V111.033H524.647V49.7228L552.594 111.033H584.375L565.24 70.0936ZM550.396 42.5281H524.642V32.1269H550.396V42.5281ZM796.875 7.99677C794.795 5.92482 792.274 4.88997 789.321 4.88997C786.387 4.88997 783.881 5.92594 781.81 7.99677C779.728 10.0766 778.685 12.5835 778.685 15.5154C778.685 18.4765 779.719 20.998 781.782 23.0778C783.854 25.1677 786.367 26.2127 789.322 26.2127C792.276 26.2127 794.797 25.1666 796.876 23.0778C798.961 20.9879 800.001 18.4664 800.001 15.5154C800 12.5734 798.961 10.0665 796.875 7.99677ZM795.816 22.0463C794.033 23.847 791.868 24.7473 789.321 24.7473C786.773 24.7473 784.608 23.847 782.828 22.0463C781.054 20.2468 780.167 18.0695 780.167 15.5154C780.167 12.9793 781.059 10.8177 782.841 9.02714C784.633 7.22764 786.794 6.32733 789.321 6.32733C791.859 6.32733 794.024 7.22764 795.816 9.02714C797.598 10.8177 798.49 12.9793 798.49 15.5154C798.49 18.0695 797.598 20.2468 795.816 22.0463Z" fill="black"></path></svg>