<?xml version="1.0" encoding="utf-8"?>

<!-- Uploaded to: SVG Repo, www.svgrepo.com, Generator: SVG Repo Mixer Tools -->
<svg xmlns="http://www.w3.org/2000/svg" width="778" height="76" viewBox="0 0 778 76" fill="none"><path fill-rule="evenodd" clip-rule="evenodd" d="M0.761719 2.62669H26.0829C44.004 2.7844 58.6504 18.5971 58.6504 37.921C58.6504 57.3197 44.004 73.1324 26.0829 73.2943H0.761719V2.62669ZM11.8265 11.1971V64.9563H23.2025C39.5631 64.4956 47.6687 51.7914 47.6687 38.2364C47.6687 24.7562 39.4095 13.7703 26.087 11.5125L11.8265 11.1971ZM101.27 0.991439C122.773 0.991439 140.304 17.6633 140.304 37.9999C140.304 58.3365 122.773 74.9336 101.27 74.9336C79.8462 74.9336 62.3152 58.3323 62.3152 37.9999C62.3152 17.6674 79.8462 0.991439 101.27 0.991439ZM101.428 9.95201C117.008 9.95201 129.708 22.4943 129.708 37.921C129.708 53.2648 117.008 65.8154 101.428 65.8154C85.8475 65.8154 73.0687 53.2689 73.0687 37.921C73.0645 22.4943 85.8434 9.95201 101.428 9.95201ZM143.342 2.78438H153.78V65.1098H173.727V73.2154H143.342V2.78438ZM207.622 0.601301C215.724 0.601301 223.281 3.01682 229.515 7.06753V19.9252C224.294 13.6914 216.504 9.64071 207.701 9.64071C192.121 9.64071 179.421 22.3407 179.421 37.921C179.421 53.4267 192.121 66.1225 207.701 66.1225C216.508 66.1225 224.298 62.0759 229.515 55.8421V68.8534C223.019 73.1371 215.404 75.4121 207.622 75.3943C186.119 75.3943 168.588 58.5647 168.588 37.9957C168.588 17.4309 186.119 0.601301 207.622 0.601301ZM243.772 64.8816H269.014V73.2154H232.786V2.78023H269.014V10.7281H243.772V31.6873H269.014V40.2535H243.772V64.8816ZM308.749 68.7745C307.608 69.8686 306.292 70.7648 304.856 71.4266C303.426 72.208 301.872 72.7347 300.262 72.983C299.871 73.066 299.481 73.1365 299.091 73.1365C298.701 73.2196 298.311 73.2195 297.925 73.2195C296.833 73.2195 295.742 73.066 294.65 72.8294C293.585 72.5129 292.583 72.0113 291.691 71.3478C290.666 70.535 289.84 69.4987 289.276 68.318C288.596 67.1744 288.171 65.8974 288.031 64.5744V64.1054C287.952 63.8772 287.952 63.7153 287.952 63.5618C287.952 63.4082 287.952 63.3252 288.031 63.1716V62.7026V62.5491C288.109 62.4744 288.109 62.4743 288.109 62.3955V62.0884V61.8518C288.578 59.6729 289.591 57.9547 291.148 56.5518C292.625 55.149 294.26 53.8998 295.978 52.8871C295.052 51.799 294.194 50.6541 293.409 49.4589C292.639 48.3664 292.23 47.0603 292.239 45.7236V45.1011C292.318 44.9475 292.318 44.794 292.318 44.5574C292.397 44.5574 292.397 44.4744 292.397 44.4038V44.3208C292.451 44.2278 292.478 44.1214 292.476 44.0137C292.476 43.9307 292.554 43.8601 292.554 43.7771C292.945 42.0589 293.8 40.7391 295.202 39.8053C296.5 38.9349 298.005 38.4237 299.564 38.3236H300.577C302.449 38.4772 304.242 39.1827 305.798 40.432C307.359 41.5982 308.135 43.3082 308.135 45.5701C308.135 47.6702 307.433 49.3884 306.188 50.6376C304.943 51.9574 303.462 53.1278 301.901 54.2194L309.384 63.2588C310.085 62.3996 310.862 61.5405 311.563 60.6897C312.185 59.8306 312.887 58.8885 313.435 57.9588L316.004 60.6108C315.55 61.4743 315.002 62.2844 314.369 63.0263C313.825 63.7236 313.198 64.508 312.576 65.2053C312.417 65.3595 312.261 65.5159 312.107 65.6742L311.638 66.1349L317.091 72.7589H312.26L308.749 68.7745ZM299.324 69.7872C300.648 69.6337 301.893 69.2435 302.984 68.538C304.075 67.8322 305.116 67.0529 306.101 66.2055C306.18 66.2055 306.259 66.1225 306.338 66.0519C306.417 66.0519 306.495 65.9689 306.574 65.8984L298.079 55.7674C298 55.7674 298 55.8504 297.925 55.921C297.846 55.921 297.767 56.004 297.688 56.0746C297.535 56.1576 297.456 56.2364 297.298 56.3111C297.219 56.3111 297.145 56.3941 297.062 56.473C296.36 56.9337 295.738 57.4068 295.115 57.8675C294.493 58.3365 293.945 58.9632 293.476 59.5857C293.318 59.8929 293.086 60.2083 292.932 60.5984C292.755 60.942 292.623 61.3076 292.542 61.6858L292.31 62.6279C292.231 62.935 292.231 63.2505 292.231 63.5618C292.231 65.2011 292.853 66.6828 294.103 68.0026C295.269 69.2518 296.829 69.9491 298.697 69.9491C298.697 69.9491 298.776 69.9491 298.776 69.8744H299.091C299.17 69.8744 299.17 69.7914 299.249 69.7914L299.324 69.7872ZM296.207 45.0886V45.3252C296.207 45.4082 296.128 45.4788 296.128 45.5618V45.7153C296.128 46.5745 296.36 47.3547 296.829 48.0561C297.294 48.8364 297.842 49.5295 298.465 50.1562C298.622 50.3928 298.855 50.6252 299.012 50.8534C299.166 51.09 299.403 51.2519 299.556 51.476C299.714 51.4013 299.788 51.3224 299.946 51.2477C300.051 51.146 300.19 51.0881 300.336 51.0859C301.27 50.5422 302.05 49.9196 302.831 49.2224C303.611 48.5168 304.076 47.6577 304.233 46.5703V46.3337V46.0972C304.233 46.0225 304.312 45.9436 304.312 45.8606V45.707C304.312 44.6197 303.922 43.6817 303.146 43.055C302.442 42.3913 301.536 41.981 300.573 41.8888H299.867C299.087 41.8888 298.311 42.2042 297.61 42.669C297.216 42.9484 296.887 43.309 296.645 43.7264C296.403 44.1439 296.254 44.6084 296.207 45.0886ZM373.963 0.290039C387.983 0.290039 400.376 7.45766 407.307 18.1323L398.197 22.8056C395.624 18.7249 392.06 15.3626 387.835 13.0329C383.611 10.7031 378.866 9.48184 374.042 9.48303C358.304 9.40417 345.525 22.183 345.525 37.921C345.525 53.5802 358.304 66.3591 374.042 66.3591C387.286 66.3591 397.728 59.7351 398.504 45.9478H375.756V37.6097H397.96C397.96 37.452 409.262 37.6097 409.959 37.6097V37.9999C409.959 60.0506 397.96 75.7139 373.967 75.7139C349.891 75.7139 334.622 58.7225 334.622 37.9999C334.622 17.2773 352.303 0.290039 373.963 0.290039ZM404.04 73.2154L433.176 2.55196H440.115L469.483 73.2154H458.028L449.931 53.2648H423.207L415.263 73.2154H404.04ZM427.257 44.3084L436.683 19.2238L446.266 44.3084H427.257ZM571.863 73.2154L601.002 2.55196H607.933L637.309 73.2154H625.855L617.749 53.2648H591.025L583.081 73.2154H571.863ZM595.159 44.3084L604.505 19.2238L614.088 44.3084H595.159ZM711.787 73.2154L740.927 2.55196H747.858L777.234 73.2154H765.779L757.673 53.2648H730.949L723.005 73.2154H711.787ZM735.004 44.3084L744.429 19.2238L754.021 44.3084H735.004ZM494.725 10.8111C501.664 11.5914 504.233 14.5506 504.233 21.4858C504.316 28.4168 499.556 32.0815 493.484 32.0815H484.283V10.7323H494.725V10.8111ZM495.273 40.6478H495.817C500.955 40.6478 510.148 41.8223 510.148 53.2689C510.148 62.4702 502.121 65.114 494.497 65.0392L496.36 65.114H484.283V40.6478H495.273ZM481.714 73.2154H499.946C512.414 73.2154 521.378 65.0351 521.378 53.2648C521.378 44.2337 515.759 37.2943 507.815 34.5717C512.339 31.6873 514.908 26.545 514.908 19.9999C514.908 9.3253 507.732 2.78438 497.141 2.54781C491.376 2.46895 485.532 2.54781 479.688 2.54781H473.301V73.2112L481.714 73.2154ZM548.248 10.8111C555.187 11.5914 557.756 14.5506 557.839 21.4858C557.914 28.4168 553.162 32.0815 547.081 32.0815H537.888V10.7323H548.248V10.8111ZM548.87 40.6478H549.422C554.481 40.6478 563.753 41.8223 563.753 53.2689C563.753 62.4702 555.656 65.114 548.094 65.0392L549.887 65.114H537.888V40.6478H548.87ZM535.319 73.2154H553.552C565.936 73.2154 574.976 65.0351 574.976 53.2648C574.976 44.2337 569.294 37.2943 561.342 34.5717C565.936 31.6873 568.435 26.545 568.435 19.9999C568.435 9.3253 561.267 2.78438 550.746 2.54781C544.903 2.46895 539.059 2.54781 533.219 2.54781H526.907V73.2112L535.319 73.2154ZM641.979 2.78438H648.681L698.153 55.0577V2.78438H707.736V73.2154H700.415L651.948 21.4816V73.2154H641.979V2.78438Z" fill="black"></path></svg>