<?xml version="1.0" encoding="utf-8"?>

<!-- Uploaded to: SVG Repo, www.svgrepo.com, Generator: SVG Repo Mixer Tools -->
<svg xmlns="http://www.w3.org/2000/svg" width="800" height="106" viewBox="0 0 800 106" fill="none"><path d="M683.459 42.2356V105.099H703.552V63.1901H777.036V105.099H797.13V42.2356H683.459ZM701.256 21.8553H778.759C789.666 19.846 797.417 10.0864 799.713 0.900879H680.302C682.598 10.0864 690.635 19.5589 701.256 21.8553ZM622.318 105.099C632.365 100.793 637.819 93.33 640.115 84.7186H549.695V1.18793H529.315V105.099H622.318ZM378.615 21.5683H450.377C461.285 18.4107 470.183 10.0864 472.48 1.18793H358.809V62.616H451.812V84.1445H378.902C367.42 87.302 357.661 95.0523 352.781 105.099H471.905V42.2356H378.902L378.615 21.5683ZM201.794 21.8553H279.297C290.205 19.846 298.242 10.0864 300.251 0.900879H180.553C182.849 10.0864 190.886 19.5589 201.794 21.8553ZM201.794 62.903H279.297C290.205 60.8937 298.242 51.1341 300.251 41.9486H180.553C182.849 51.1341 190.886 60.6067 201.794 62.903ZM201.794 105.099H279.297C290.205 103.09 298.242 93.33 300.251 84.1445H180.553C182.849 93.33 190.886 103.09 201.794 105.099Z" fill="#5E5E5E"></path><path d="M0 1.18793C2.29638 10.3734 10.3337 19.5589 20.9544 21.8553H53.6778L55.4001 22.4294V104.812H75.7804V22.4294L77.5027 21.8553H110.226C121.134 18.9848 128.884 10.3734 131.18 1.18793V0.900879L0 1.18793Z" fill="#5E5E5E"></path></svg>